<svg width="82" height="16" viewBox="0 0 82 16" fill="none" xmlns="http://www.w3.org/2000/svg">
<path d="M9.25342 1.46995C8.75032 0.415616 7.24954 0.415614 6.74644 1.46995L5.2025 4.70552L1.64819 5.17405C0.489989 5.32672 0.0262219 6.75404 0.873488 7.55833L3.47359 10.0265L2.82085 13.5517C2.60814 14.7004 3.8223 15.5825 4.84904 15.0252L7.99993 13.3151L11.1508 15.0252C12.1776 15.5825 13.3917 14.7004 13.179 13.5517L12.5263 10.0265L15.1264 7.55833C15.9736 6.75404 15.5099 5.32672 14.3517 5.17405L10.7974 4.70552L9.25342 1.46995Z" fill="#4A4A4A"/>
<path d="M30.8142 1.79075C30.3111 0.736417 28.8103 0.736415 28.3072 1.79075L26.7633 5.02632L23.209 5.49485C22.0508 5.64752 21.587 7.07484 22.4343 7.87913L25.0344 10.3473L24.3816 13.8725C24.1689 15.0212 25.3831 15.9033 26.4098 15.346L29.5607 13.6359L32.7116 15.346C33.7384 15.9033 34.9525 15.0212 34.7398 13.8725L34.0871 10.3473L36.6872 7.87913C37.5344 7.07484 37.0707 5.64752 35.9125 5.49485L32.3582 5.02632L30.8142 1.79075Z" fill="#4A4A4A"/>
<path d="M52.8142 0.790752C52.3111 -0.263583 50.8103 -0.263585 50.3072 0.790752L48.7633 4.02632L45.209 4.49485C44.0508 4.64752 43.587 6.07484 44.4343 6.87913L47.0344 9.34735L46.3816 12.8725C46.1689 14.0212 47.3831 14.9033 48.4098 14.346L51.5607 12.6359L54.7116 14.346C55.7384 14.9033 56.9525 14.0212 56.7398 12.8725L56.0871 9.34735L58.6872 6.87913C59.5344 6.07484 59.0707 4.64752 57.9125 4.49485L54.3582 4.02632L52.8142 0.790752Z" fill="#4A4A4A"/>
<path d="M74.8142 0.790752C74.3111 -0.263583 72.8103 -0.263585 72.3072 0.790752L70.7633 4.02632L67.209 4.49485C66.0508 4.64752 65.587 6.07484 66.4343 6.87913L69.0344 9.34735L68.3816 12.8725C68.1689 14.0212 69.3831 14.9033 70.4098 14.346L73.5607 12.6359L76.7116 14.346C77.7384 14.9033 78.9525 14.0212 78.7398 12.8725L78.0871 9.34735L80.6872 6.87913C81.5344 6.07484 81.0707 4.64752 79.9125 4.49485L76.3582 4.02632L74.8142 0.790752Z" fill="#4A4A4A"/>
</svg>
