<svg width="991" height="1011" viewBox="0 0 991 1011" fill="none" xmlns="http://www.w3.org/2000/svg">
<path d="M780.111 608.507C780.107 608.468 780.086 608.432 780.055 608.407C780.024 608.381 779.983 608.367 779.941 608.367L505.481 608.357C505.365 608.357 505.253 608.311 505.17 608.229C505.088 608.146 505.041 608.034 505.041 607.917V410.897C505.041 410.611 505.185 410.467 505.471 410.467H980.771C980.906 410.468 981.037 410.515 981.139 410.601C981.242 410.687 981.31 410.806 981.331 410.937C1006.42 552.417 983.341 706.247 898.271 823.727C854.645 883.981 798.511 930.437 729.871 963.097C696.565 978.951 661.398 990.761 624.371 998.527C558.411 1012.36 490.891 1014.73 424.221 1004.39C417.028 1003.27 410.498 1002.1 404.631 1000.88C323.178 983.824 251.055 949.911 188.261 899.137C130.621 852.531 84.9447 795.384 51.2314 727.697C48.278 721.757 45.3881 715.537 42.5614 709.037C11.9214 638.391 -2.17528 565.137 0.271386 489.277C3.41139 391.951 32.6047 302.374 87.8514 220.547C91.4381 215.234 95.3014 209.834 99.4414 204.347C146.848 141.447 205.011 92.0107 273.931 56.0374C279.811 52.9707 285.798 50.0241 291.891 47.1974C357.365 16.8574 426.381 1.14406 498.941 0.0573963C584.781 -1.2326 671.491 19.2274 746.211 60.9174C780.878 80.2574 813.201 103.727 843.181 131.327C843.233 131.375 843.274 131.432 843.303 131.495C843.333 131.558 843.349 131.627 843.352 131.696C843.355 131.766 843.344 131.835 843.32 131.901C843.296 131.966 843.259 132.026 843.211 132.077C840.151 135.364 837.071 138.561 833.971 141.667C790.725 185.014 746.461 229.247 701.181 274.367C701.02 274.528 700.803 274.619 700.575 274.623C700.348 274.627 700.128 274.542 699.961 274.387C665.851 242.107 623.361 218.087 577.571 206.987C532.151 195.981 486.721 195.414 441.281 205.287C344.081 226.407 263.351 298.557 226.491 389.717C222.701 399.097 218.721 408.567 215.951 418.047C199.058 475.841 199.011 533.787 215.811 591.887C234.021 654.877 272.861 711.367 324.931 751.327C368.421 784.717 421.451 806.637 476.451 811.737C508.318 814.697 540.585 813.091 573.251 806.917C608.671 800.224 641.681 787.457 672.281 768.617C728.811 733.817 768.241 674.767 780.071 609.927C780.158 609.461 780.171 608.987 780.111 608.507Z" fill="white"/>
</svg>
